# xmcd
#
# Track frame offsets:
#	150
#	16805
#	37997
#	60367
#	76210
#	119857
#	137762
#	153835
#	173530
#	201700
#	217652
#	236522
#
# Disc length: 3513 seconds
#
# Revision: 1
# Processed by: cddbd v1.5.1PL0 Copyright (c) Steve Scherf et al.
# Submitted via: CDex 1.50Beta5
#
DISCID=950db70c
DTITLE=Rainer Kuchl - Meditation from Thais
DYEAR=1900
DGENRE=violin
TTITLE0=カンタービレ 作品17
TTITLE1=序奏とタランテラ 作品43
TTITLE2=タイスの瞑想曲
TTITLE3=瞑想曲 作品32
TTITLE4=なつかしい土地の想い出 作品42 1.瞑想曲
TTITLE5=2.スケルツォ
TTITLE6=3.メロディ
TTITLE7=アヴェ・マリア
TTITLE8=ワルツ・カプリチオ 作品7
TTITLE9=歌の翼に
TTITLE10=トセリのセレナータ 作品6-1
TTITLE11=アヴェ・マリア
EXTD=
EXTT0=
EXTT1=
EXTT2=
EXTT3=
EXTT4=
EXTT5=
EXTT6=
EXTT7=
EXTT8=
EXTT9=
EXTT10=
EXTT11=
PLAYORDER=
